REM DIRINDEX 1\2,1\3\7,1\3\8,1\4\9,1\4\10,1\4\11,1\5\12,1\5\13,1\5\14,1\6\15,1\6\16,1\6\17
REM DIRNAME "folder01","folder02","folder03","folder04","folder05","folder06","folder07","folder08","folder09","folder10","folder11","folder12","folder13","folder14","folder15","folder16","folder17"
TITLE ""
FILE "2Q_j_1435-1448.mp3" MP3
  TRACK 01 AUDIO
    TITLE "0:"
    INDEX 01 00:00:00
  TRACK 02 AUDIO
    TITLE "9:cjc174_0522"
    INDEX 01 00:00:18
  TRACK 03 AUDIO
    TITLE "0:"
    INDEX 01 00:02:07
  TRACK 04 AUDIO
    TITLE "10:cjc174_0523"
    INDEX 01 00:02:54
  TRACK 05 AUDIO
    TITLE "0:"
    INDEX 01 00:06:56
  TRACK 06 AUDIO
    TITLE "11:cjc174_0524"
    INDEX 01 00:07:24
  TRACK 07 AUDIO
    TITLE "0:"
    INDEX 01 00:10:38
  TRACK 08 AUDIO
    TITLE "9:cjc174_0525"
    INDEX 01 00:11:10
  TRACK 09 AUDIO
    TITLE "0:"
    INDEX 01 00:12:31
  TRACK 10 AUDIO
    TITLE "10:cjc174_0526"
    INDEX 01 00:13:03
  TRACK 11 AUDIO
    TITLE "0:"
    INDEX 01 00:16:54
  TRACK 12 AUDIO
    TITLE "11:cjc174_0527"
    INDEX 01 00:17:24
  TRACK 13 AUDIO
    TITLE "0:"
    INDEX 01 00:21:40
  TRACK 14 AUDIO
    TITLE "9:cjc174_0528"
    INDEX 01 00:22:14
  TRACK 15 AUDIO
    TITLE "0:"
    INDEX 01 00:23:74
  TRACK 16 AUDIO
    TITLE "10:cjc174_0529"
    INDEX 01 00:24:52
  TRACK 17 AUDIO
    TITLE "0:"
    INDEX 01 00:30:19
  TRACK 18 AUDIO
    TITLE "11:cjc174_0530"
    INDEX 01 00:30:64
  TRACK 19 AUDIO
    TITLE "0:"
    INDEX 01 00:34:17
  TRACK 20 AUDIO
    TITLE "9:cjc174_0531"
    INDEX 01 00:35:01
  TRACK 21 AUDIO
    TITLE "0:"
    INDEX 01 00:36:16
  TRACK 22 AUDIO
    TITLE "10:cjc174_0532"
    INDEX 01 00:36:71
  TRACK 23 AUDIO
    TITLE "0:"
    INDEX 01 00:38:66
  TRACK 24 AUDIO
    TITLE "11:cjc174_0533"
    INDEX 01 00:39:36
  TRACK 25 AUDIO
    TITLE "0:"
    INDEX 01 00:44:33
  TRACK 26 AUDIO
    TITLE "9:cjc174_0534"
    INDEX 01 00:45:09
  TRACK 27 AUDIO
    TITLE "0:"
    INDEX 01 00:46:40
  TRACK 28 AUDIO
    TITLE "10:cjc174_0535"
    INDEX 01 00:47:10
  TRACK 29 AUDIO
    TITLE "0:"
    INDEX 01 00:48:39
  TRACK 30 AUDIO
    TITLE "11:cjc174_0536"
    INDEX 01 00:49:09
  TRACK 31 AUDIO
    TITLE "0:"
    INDEX 01 00:52:46
  TRACK 32 AUDIO
    TITLE "9:cjc174_0537"
    INDEX 01 00:53:16
  TRACK 33 AUDIO
    TITLE "0:"
    INDEX 01 00:54:39
  TRACK 34 AUDIO
    TITLE "10:cjc174_0538"
    INDEX 01 00:55:11
  TRACK 35 AUDIO
    TITLE "0:"
    INDEX 01 00:58:23
  TRACK 36 AUDIO
    TITLE "11:cjc174_0539"
    INDEX 01 00:58:68
  TRACK 37 AUDIO
    TITLE "0:"
    INDEX 01 01:01:04
  TRACK 38 AUDIO
    TITLE "9:cjc174_0540"
    INDEX 01 01:01:55
  TRACK 39 AUDIO
    TITLE "0:"
    INDEX 01 01:03:40
  TRACK 40 AUDIO
    TITLE "10:cjc174_0541"
    INDEX 01 01:04:12
  TRACK 41 AUDIO
    TITLE "0:"
    INDEX 01 01:08:16
  TRACK 42 AUDIO
    TITLE "11:cjc174_0542"
    INDEX 01 01:08:61
  TRACK 43 AUDIO
    TITLE "0:"
    INDEX 01 01:12:63
  TRACK 44 AUDIO
    TITLE "9:cjc174_0543"
    INDEX 01 01:13:33
  TRACK 45 AUDIO
    TITLE "0:"
    INDEX 01 01:15:30
  TRACK 46 AUDIO
    TITLE "10:cjc174_0544"
    INDEX 01 01:16:02
  TRACK 47 AUDIO
    TITLE "0:"
    INDEX 01 01:18:10
  TRACK 48 AUDIO
    TITLE "11:cjc174_0545"
    INDEX 01 01:18:55
  TRACK 49 AUDIO
    TITLE "0:"
    INDEX 01 01:23:53
  TRACK 50 AUDIO
    TITLE "9:cjc174_0546"
    INDEX 01 01:24:25
  TRACK 51 AUDIO
    TITLE "0:"
    INDEX 01 01:25:71
  TRACK 52 AUDIO
    TITLE "10:cjc174_0547"
    INDEX 01 01:26:43
  TRACK 53 AUDIO
    TITLE "0:"
    INDEX 01 01:28:50
  TRACK 54 AUDIO
    TITLE "11:cjc174_0548"
    INDEX 01 01:29:20
  TRACK 55 AUDIO
    TITLE "0:"
    INDEX 01 01:32:54
  TRACK 56 AUDIO
    TITLE "9:cjc174_0549"
    INDEX 01 01:33:26
  TRACK 57 AUDIO
    TITLE "0:"
    INDEX 01 01:35:23
  TRACK 58 AUDIO
    TITLE "10:cjc174_0550"
    INDEX 01 01:35:70
  TRACK 59 AUDIO
    TITLE "0:"
    INDEX 01 01:38:11
  TRACK 60 AUDIO
    TITLE "11:cjc174_0551"
    INDEX 01 01:38:56
  TRACK 61 AUDIO
    TITLE "0:"
    INDEX 01 01:42:31
  TRACK 62 AUDIO
    TITLE "9:cjc174_0552"
    INDEX 01 01:43:01
  TRACK 63 AUDIO
    TITLE "0:"
    INDEX 01 01:44:55
  TRACK 64 AUDIO
    TITLE "10:cjc174_0553"
    INDEX 01 01:45:33
  TRACK 65 AUDIO
    TITLE "0:"
    INDEX 01 01:48:31
  TRACK 66 AUDIO
    TITLE "11:cjc174_0554"
    INDEX 01 01:49:01
  TRACK 67 AUDIO
    TITLE "0:"
    INDEX 01 01:54:02
  TRACK 68 AUDIO
    TITLE "9:cjc174_0555"
    INDEX 01 01:54:55
  TRACK 69 AUDIO
    TITLE "0:"
    INDEX 01 01:56:03
  TRACK 70 AUDIO
    TITLE "10:cjc174_0556"
    INDEX 01 01:56:50
  TRACK 71 AUDIO
    TITLE "0:"
    INDEX 01 01:59:04
  TRACK 72 AUDIO
    TITLE "11:cjc174_0557"
    INDEX 01 01:59:49
  TRACK 73 AUDIO
    TITLE "0:"
    INDEX 01 02:03:37
  TRACK 74 AUDIO
    TITLE "9:cjc174_0558"
    INDEX 01 02:04:07
  TRACK 75 AUDIO
    TITLE "0:"
    INDEX 01 02:05:45
  TRACK 76 AUDIO
    TITLE "10:cjc174_0559"
    INDEX 01 02:06:17
  TRACK 77 AUDIO
    TITLE "0:"
    INDEX 01 02:09:63
  TRACK 78 AUDIO
    TITLE "11:cjc174_0560"
    INDEX 01 02:10:33
  TRACK 79 AUDIO
    TITLE "0:"
    INDEX 01 02:13:27
  TRACK 80 AUDIO
    TITLE "9:cjc174_0561"
    INDEX 01 02:13:72
  TRACK 81 AUDIO
    TITLE "0:"
    INDEX 01 02:15:34
  TRACK 82 AUDIO
    TITLE "10:cjc174_0562"
    INDEX 01 02:16:06
  TRACK 83 AUDIO
    TITLE "0:"
    INDEX 01 02:17:66
  TRACK 84 AUDIO
    TITLE "11:cjc174_0563"
    INDEX 01 02:18:36
  TRACK 85 AUDIO
    TITLE "0:"
    INDEX 01 02:24:07
